<svg viewBox="0 -5 512 512" xmlns="http://www.w3.org/2000/svg"><path d="m360.242188 180.121094c0 99.476562-80.648438 180.109375-180.121094 180.109375-20.460938 0-40.128906-3.414063-58.46875-9.703125-61.738282-21.179688-108.339844-74.957032-119.238282-140.796875-1.585937-9.636719-2.414062-19.527344-2.414062-29.609375 0-63.394532 32.753906-119.140625 82.265625-151.242188 28.175781-18.261718 61.785156-28.878906 97.855469-28.878906 72.445312 0 134.890625 42.769531 163.488281 104.433594 10.679687 23.007812 16.632813 48.644531 16.632813 75.6875zm0 0" fill="#27bef4"/><path d="m326.875 164.171875c-.019531 4.253906-3.472656 7.683594-7.726562 7.683594h-.140626c-.515624 0-1.011718-.050781-1.496093-.15625-3.554688-.699219-6.222657-3.851563-6.203125-7.601563.023437-3.265625 2.050781-6.058594 4.925781-7.160156.863281-.347656 1.8125-.535156 2.800781-.535156h.144532c4.277343.019531 7.71875 3.503906 7.695312 7.769531zm0 0" fill="#00e2c7"/><path d="m360.242188 180.121094c0 99.476562-80.648438 180.109375-180.121094 180.109375-7.179688 0-14.261719-.421875-21.222656-1.25 89.433593-10.539063 158.8125-86.597657 158.8125-178.859375 0-27.042969-5.949219-52.679688-16.632813-75.6875-25.757813-55.539063-78.980469-95.753906-142.234375-103.183594 6.984375-.824219 14.078125-1.25 21.277344-1.25 72.441406 0 134.890625 42.769531 163.488281 104.433594 10.679687 23.007812 16.632813 48.644531 16.632813 75.6875zm0 0" fill="#209ced"/><path d="m155.40625 330.054688c-1.109375 0-2.207031-.050782-3.296875-.140626-11.527344-.957031-22.308594 5.539063-27.679687 15.796876-.859376 1.640624-1.785157 3.25-2.777344 4.816406-61.738282-21.179688-108.339844-74.957032-119.238282-140.796875 2.449219-4.058594 5.570313-7.8125 9.34375-11.097657 18.144532-15.78125 45.804688-15 63.015626 1.808594 9.191406 8.984375 13.84375 20.730469 14.050781 32.5.164062 9.28125 4.679687 17.90625 12.421875 23.027344.601562.402344 1.1875.804688 1.773437 1.21875 9.433594 6.679688 21.875 6.59375 31.675781.46875 6.703126-4.1875 14.773438-6.40625 23.375-5.832031 19.351563 1.285156 35.039063 16.90625 36.398438 36.246093 1.597656 22.90625-16.5 41.984376-39.0625 41.984376zm0 0" fill="#00e2c7"/><path d="m343.609375 104.433594c-7.601563 12.835937-18.492187 23.53125-31.511719 30.894531-.945312.53125-1.894531 1.042969-2.859375 1.542969-10.183593 5.253906-16.699219 15.597656-16.925781 27.042968-.035156 1.652344-.152344 3.328126-.347656 5.015626-2.816406 23.644531-22.429688 42.179687-46.207032 43.691406-28.980468 1.828125-53.039062-21.121094-53.039062-49.707032 0-8.671874 2.21875-16.828124 6.109375-23.933593 5.527344-10.039063 5.582031-22.277344-.617187-31.921875-.078126-.132813-.164063-.261719-.25-.402344-7.027344-11.074219-20.167969-16.699219-32.972657-13.859375-4.75 1.066406-9.703125 1.621094-14.78125 1.621094-36.734375 0-66.644531-29.117188-67.941406-65.535157 22.550781-14.621093 48.589844-24.347656 76.578125-27.628906 6.984375-.828125 14.078125-1.253906 21.277344-1.253906 72.445312 0 134.890625 42.769531 163.488281 104.433594zm0 0" fill="#00e2c7"/><path d="m343.609375 104.433594c-7.601563 12.835937-18.492187 23.53125-31.511719 30.894531-2.742187-10.714844-6.449218-21.050781-11.019531-30.894531-25.757813-55.539063-78.980469-95.753906-142.234375-103.183594 6.984375-.824219 14.078125-1.25 21.277344-1.25 72.445312 0 134.890625 42.769531 163.488281 104.433594zm0 0" fill="#00c6a9"/><path d="m137.699219 148.914062h-.113281c-4.269532 0-7.726563-3.457031-7.726563-7.722656 0-4.269531 3.457031-7.726562 7.726563-7.726562h.113281c4.265625 0 7.726562 3.457031 7.726562 7.726562 0 4.265625-3.460937 7.722656-7.726562 7.722656zm0 0" fill="#00e2c7"/><path d="m470.78125 336.546875h-254.347656c-22.761719 0-41.214844-18.453125-41.214844-41.214844s18.453125-41.214843 41.214844-41.214843h254.347656c22.761719 0 41.214844 18.453124 41.214844 41.214843s-18.453125 41.214844-41.214844 41.214844zm0 0" fill="#6b97af"/><path d="m512 295.335938c0 11.382812-4.617188 21.691406-12.074219 29.148437-7.460937 7.457031-17.757812 12.066406-29.140625 12.066406h-27.335937c11.382812 0 21.683593-4.609375 29.140625-12.066406 7.457031-7.457031 12.074218-17.765625 12.074218-29.148437 0-22.769532-18.457031-41.21875-41.214843-41.21875h27.335937c22.753906 0 41.214844 18.449218 41.214844 41.21875zm0 0" fill="#50758e"/><path d="m229.386719 254.117188h52.710937v82.429687h-52.710937zm0 0" fill="#f1eded"/><path d="m262.300781 254.117188h19.796875v82.429687h-19.796875zm0 0" fill="#dad0cd"/><path d="m455.445312 295.332031c0 7.28125-5.898437 13.179688-13.175781 13.179688-7.28125 0-13.179687-5.898438-13.179687-13.179688 0-7.277343 5.898437-13.179687 13.179687-13.179687 7.277344 0 13.175781 5.902344 13.175781 13.179687zm0 0" fill="#00e2c7"/><path d="m371.785156 304.046875c-.011718 0-.023437 0-.039062 0-4.265625-.023437-7.757813-3.5-7.734375-7.765625.019531-4.253906 3.425781-7.6875 7.671875-7.6875h.039062.101563c4.269531.019531 7.710937 3.496094 7.6875 7.765625-.019531 4.25-3.476563 7.6875-7.726563 7.6875zm0 0" fill="#f1eded"/><path d="m347.382812 304.046875c-.015624 0-.027343 0-.039062 0-4.269531-.023437-7.761719-3.5-7.738281-7.765625.019531-4.253906 3.425781-7.6875 7.675781-7.6875h.039062.101563c4.265625.019531 7.707031 3.496094 7.6875 7.765625-.023437 4.25-3.480469 7.6875-7.726563 7.6875zm0 0" fill="#f1eded"/><path d="m322.976562 304.046875c-.015624 0-.027343 0-.039062 0-4.265625-.023437-7.761719-3.5-7.738281-7.765625.019531-4.253906 3.425781-7.6875 7.675781-7.6875h.039062.101563c4.265625.019531 7.707031 3.496094 7.6875 7.765625-.023437 4.25-3.480469 7.6875-7.726563 7.6875zm0 0" fill="#f1eded"/><path d="m470.78125 418.976562h-254.347656c-22.761719 0-41.214844-18.453124-41.214844-41.214843s18.453125-41.214844 41.214844-41.214844h254.347656c22.761719 0 41.214844 18.453125 41.214844 41.214844s-18.453125 41.214843-41.214844 41.214843zm0 0" fill="#50758e"/><path d="m512 377.765625c0 11.382813-4.617188 21.691406-12.074219 29.148437-7.460937 7.457032-17.757812 12.066407-29.140625 12.066407h-27.335937c11.382812 0 21.683593-4.609375 29.140625-12.066407 7.457031-7.457031 12.074218-17.765624 12.074218-29.148437 0-22.769531-18.457031-41.21875-41.214843-41.21875h27.335937c22.753906 0 41.214844 18.449219 41.214844 41.21875zm0 0" fill="#2b597f"/><path d="m229.386719 336.546875h52.710937v82.429687h-52.710937zm0 0" fill="#dad0cd"/><path d="m262.300781 336.546875h19.796875v82.429687h-19.796875zm0 0" fill="#c1bab8"/><path d="m455.445312 377.761719c0 7.28125-5.898437 13.179687-13.175781 13.179687-7.28125 0-13.179687-5.898437-13.179687-13.179687 0-7.277344 5.898437-13.175781 13.179687-13.175781 7.277344 0 13.175781 5.898437 13.175781 13.175781zm0 0" fill="#00e2c7"/><path d="m371.785156 386.476562c-4.265625 0-7.777344-3.460937-7.777344-7.726562 0-4.269531 3.410157-7.726562 7.675782-7.726562h.101562c4.269532 0 7.726563 3.457031 7.726563 7.726562 0 4.265625-3.457031 7.726562-7.726563 7.726562zm0 0" fill="#dad0cd"/><path d="m347.382812 386.476562c-4.269531 0-7.777343-3.460937-7.777343-7.726562 0-4.269531 3.40625-7.726562 7.675781-7.726562h.101562c4.265626 0 7.722657 3.457031 7.722657 7.726562 0 4.265625-3.457031 7.726562-7.722657 7.726562zm0 0" fill="#dad0cd"/><path d="m322.976562 386.476562c-4.269531 0-7.777343-3.460937-7.777343-7.726562 0-4.269531 3.40625-7.726562 7.675781-7.726562h.101562c4.265626 0 7.722657 3.457031 7.722657 7.726562 0 4.265625-3.457031 7.726562-7.722657 7.726562zm0 0" fill="#dad0cd"/><path d="m470.78125 501.40625h-254.347656c-22.761719 0-41.214844-18.453125-41.214844-41.214844 0-22.761718 18.453125-41.214844 41.214844-41.214844h254.347656c22.761719 0 41.214844 18.453126 41.214844 41.214844 0 22.761719-18.453125 41.214844-41.214844 41.214844zm0 0" fill="#6b97af"/><path d="m512 460.195312c0 11.382813-4.617188 21.691407-12.074219 29.148438-7.460937 7.457031-17.757812 12.066406-29.140625 12.066406h-27.335937c11.382812 0 21.683593-4.609375 29.140625-12.066406 7.457031-7.457031 12.074218-17.765625 12.074218-29.148438 0-22.765624-18.457031-41.21875-41.214843-41.21875h27.335937c22.753906 0 41.214844 18.453126 41.214844 41.21875zm0 0" fill="#50758e"/><path d="m229.386719 418.976562h52.710937v82.429688h-52.710937zm0 0" fill="#f1eded"/><path d="m262.300781 418.976562h19.796875v82.429688h-19.796875zm0 0" fill="#dad0cd"/><path d="m455.445312 460.191406c0 7.28125-5.898437 13.179688-13.175781 13.179688-7.28125 0-13.179687-5.898438-13.179687-13.179688 0-7.277344 5.898437-13.175781 13.179687-13.175781 7.277344 0 13.175781 5.898437 13.175781 13.175781zm0 0" fill="#00e2c7"/><path d="m371.785156 468.90625c-4.265625 0-7.777344-3.460938-7.777344-7.726562 0-4.269532 3.410157-7.726563 7.675782-7.726563h.101562c4.269532 0 7.726563 3.457031 7.726563 7.726563 0 4.265624-3.457031 7.726562-7.726563 7.726562zm0 0" fill="#f1eded"/><path d="m347.382812 468.90625c-4.269531 0-7.777343-3.460938-7.777343-7.726562 0-4.269532 3.40625-7.726563 7.675781-7.726563h.101562c4.265626 0 7.722657 3.457031 7.722657 7.726563 0 4.265624-3.457031 7.726562-7.722657 7.726562zm0 0" fill="#f1eded"/><path d="m322.976562 468.90625c-4.269531 0-7.777343-3.460938-7.777343-7.726562 0-4.269532 3.40625-7.726563 7.675781-7.726563h.101562c4.265626 0 7.722657 3.457031 7.722657 7.726563 0 4.265624-3.457031 7.726562-7.722657 7.726562zm0 0" fill="#f1eded"/><g fill="#00e2c7"><path d="m427.648438 178.886719h-26.390626c-4.269531 0-7.726562-3.460938-7.726562-7.726563s3.457031-7.726562 7.726562-7.726562h26.390626c4.269531 0 7.726562 3.460937 7.726562 7.726562s-3.457031 7.726563-7.726562 7.726563zm0 0"/><path d="m475.039062 201.550781h-73.78125c-4.269531 0-7.726562-3.460937-7.726562-7.726562s3.457031-7.726563 7.726562-7.726563h73.78125c4.265626 0 7.726563 3.460938 7.726563 7.726563s-3.460937 7.726562-7.726563 7.726562zm0 0"/><path d="m475.039062 224.214844h-73.78125c-4.269531 0-7.726562-3.460938-7.726562-7.726563s3.457031-7.726562 7.726562-7.726562h73.78125c4.265626 0 7.726563 3.460937 7.726563 7.726562s-3.460937 7.726563-7.726563 7.726563zm0 0"/></g><path d="m326.875 164.171875c-.019531 4.253906-3.472656 7.683594-7.726562 7.683594h-.140626c-.515624 0-1.011718-.050781-1.496093-.15625-.226563-4.972657-.660157-9.898438-1.277344-14.761719.867187-.347656 1.8125-.535156 2.800781-.535156h.144532c4.277343.019531 7.71875 3.503906 7.695312 7.769531zm0 0" fill="#00c6a9"/></svg>