<?xml version="1.0" encoding="UTF-8" standalone="no"?><!-- Generator: Gravit.io --><svg xmlns="http://www.w3.org/2000/svg" xmlns:xlink="http://www.w3.org/1999/xlink" style="isolation:isolate" viewBox="0 0 300 300"><defs><clipPath id="_clipPath_Ghteyjy3pp13ISs5ulDeHQRMQv6Wc1pr"><rect width="300" height="300"/></clipPath></defs><g clip-path="url(#_clipPath_Ghteyjy3pp13ISs5ulDeHQRMQv6Wc1pr)"><rect width="300" height="300" style="fill:rgb(232,232,232)" fill-opacity="0"/><rect x="55.75" y="55.75" width="188.5" height="188.5" transform="matrix(1,0,0,1,0,0)" fill="rgb(228,251,255)"/><path d=" M 34 195.313 L 12.25 195.313 C 8.249 195.313 5 192.064 5 188.063 L 5 180.813 C 5 176.811 8.249 173.563 12.25 173.563 L 34 173.563 C 38.001 173.563 41.25 170.314 41.25 166.313 L 41.25 133.688 C 41.25 129.686 38.001 126.438 34 126.438 L 12.25 126.438 C 8.249 126.438 5 123.189 5 119.188 L 5 111.938 C 5 107.936 8.249 104.688 12.25 104.688 L 34 104.688 C 38.001 104.688 41.25 101.439 41.25 97.438 L 41.25 55.75 C 41.25 47.747 47.747 41.25 55.75 41.25 L 97.438 41.25 C 101.439 41.25 104.688 38.001 104.688 34 L 104.688 12.25 C 104.688 8.249 107.936 5 111.938 5 L 119.188 5 C 123.189 5 126.438 8.249 126.438 12.25 L 126.438 34 C 126.438 38.001 129.686 41.25 133.688 41.25 L 166.313 41.25 C 170.314 41.25 173.563 38.001 173.563 34 L 173.563 12.25 C 173.563 8.249 176.811 5 180.813 5 L 188.063 5 C 192.064 5 195.313 8.249 195.313 12.25 L 195.313 34 C 195.313 38.001 198.561 41.25 202.563 41.25 L 244.25 41.25 C 252.253 41.25 258.75 47.747 258.75 55.75 L 258.75 97.438 C 258.75 101.439 261.999 104.688 266 104.688 L 287.75 104.688 C 291.751 104.688 295 107.936 295 111.938 L 295 119.188 C 295 123.189 291.751 126.438 287.75 126.438 L 266 126.438 C 261.999 126.438 258.75 129.686 258.75 133.688 L 258.75 166.313 C 258.75 170.314 261.999 173.563 266 173.563 L 287.75 173.563 C 291.751 173.563 295 176.811 295 180.813 L 295 188.063 C 295 192.064 291.751 195.313 287.75 195.313 L 266 195.313 C 261.999 195.313 258.75 198.561 258.75 202.563 L 258.75 244.25 C 258.75 252.253 252.253 258.75 244.25 258.75 L 244.25 258.75 L 202.563 258.75 C 198.561 258.75 195.313 261.999 195.313 266 L 195.313 287.75 C 195.313 291.751 192.064 295 188.063 295 L 180.813 295 C 176.811 295 173.563 291.751 173.563 287.75 L 173.563 266 C 173.563 261.999 170.314 258.75 166.313 258.75 L 133.688 258.75 C 129.686 258.75 126.438 261.999 126.438 266 L 126.438 287.75 C 126.438 291.751 123.189 295 119.188 295 L 111.938 295 C 107.936 295 104.688 291.751 104.688 287.75 L 104.688 266 C 104.688 261.999 101.439 258.75 97.438 258.75 L 55.75 258.75 C 47.747 258.75 41.25 252.253 41.25 244.25 L 41.25 202.563 C 41.25 198.561 38.001 195.313 34 195.313 Z  M 237 202.563 L 237 229.75 C 237 233.751 233.751 237 229.75 237 L 70.25 237 C 66.249 237 63 233.751 63 229.75 L 63 70.25 C 63 66.249 66.249 63 70.25 63 L 229.75 63 C 233.751 63 237 66.249 237 70.25 L 237 97.438 C 237 101.439 233.751 104.688 229.75 104.688 L 111.938 104.688 C 107.936 104.688 104.688 107.936 104.688 111.938 L 104.688 119.188 C 104.688 123.189 107.936 126.438 111.938 126.438 L 229.75 126.438 C 233.751 126.438 237 129.686 237 133.688 L 237 166.313 C 237 170.314 233.751 173.563 229.75 173.563 L 111.938 173.563 C 107.936 173.563 104.688 176.811 104.688 180.813 L 104.688 188.063 C 104.688 192.064 107.936 195.313 111.938 195.313 L 229.75 195.313 C 233.751 195.313 237 198.561 237 202.563 L 237 202.563 L 237 202.563 L 237 202.563 L 237 202.563 L 237 202.563 L 237 202.563 L 237 202.563 L 237 202.563 Z " fill-rule="evenodd" fill="rgb(120,104,230)"/></g></svg>