<?xml version="1.0" encoding="iso-8859-1"?>
<!-- Generator: Adobe Illustrator 19.0.0, SVG Export Plug-In . SVG Version: 6.00 Build 0)  -->
<svg version="1.1" id="Capa_1" xmlns="http://www.w3.org/2000/svg" xmlns:xlink="http://www.w3.org/1999/xlink" x="0px" y="0px"
	 viewBox="0 0 512 512" style="enable-background:new 0 0 512 512;" xml:space="preserve">
<path style="fill:#E4EAF8;" d="M317.708,8H75.909C62.636,8,51.777,18.86,51.777,32.134v448.732c0,13.273,10.86,24.133,24.133,24.133
	h241.798c13.274,0,24.133-10.86,24.133-24.133V374.36V190.845V32.134C341.841,18.86,330.982,8,317.708,8z"/>
<path style="fill:#D8DCE5;" d="M71.778,480.866V32.134C71.778,18.86,82.638,8,95.91,8H75.909C62.636,8,51.777,18.86,51.777,32.134
	v448.732c0,13.273,10.86,24.133,24.133,24.133h20.001C82.638,505,71.778,494.139,71.778,480.866z"/>
<path style="fill:#5BDDFC;" d="M303.31,83.206H90.307c-3.392,0-6.143,2.75-6.143,6.143v326.846c0,3.392,2.751,6.143,6.143,6.143
	H303.31c3.393,0,6.143-2.75,6.143-6.143V374.36V190.845V89.349C309.453,85.956,306.703,83.206,303.31,83.206z"/>
<g>
	<path style="fill:#00C3FF;" d="M104.165,416.195V89.349c0-3.392,2.751-6.143,6.143-6.143H90.307c-3.392,0-6.143,2.75-6.143,6.143
		v326.846c0,3.392,2.751,6.143,6.143,6.143h20.001C106.916,422.339,104.165,419.588,104.165,416.195z"/>
	<path style="fill:#00C3FF;" d="M303.31,83.206H90.307c-3.392,0-6.143,2.751-6.143,6.143v41.419h225.291V89.349
		C309.453,85.957,306.703,83.206,303.31,83.206z"/>
</g>
<path style="fill:#FF5050;" d="M128.042,83.206H90.307c-3.392,0-6.143,2.751-6.143,6.143v41.419h43.88V83.206H128.042z"/>
<path style="fill:#ED3A3A;" d="M104.165,90.11c0-3.117,1.913-5.786,4.627-6.904H90.307c-3.392,0-6.143,2.75-6.143,6.143v41.419
	h20.001C104.165,130.768,104.165,90.11,104.165,90.11z"/>
<path style="fill:#C3C8D1;" d="M217.74,477.881h-41.864c-6.233,0-11.334-5.1-11.334-11.334v-5.702c0-6.233,5.1-11.334,11.334-11.334
	h41.864c6.233,0,11.334,5.1,11.334,11.334v5.702C229.074,472.781,223.974,477.881,217.74,477.881z"/>
<path style="fill:#B0B3B7;" d="M217.74,463.696h-41.864c-4.735,0-8.81-2.945-10.499-7.092c-0.535,1.313-0.836,2.743-0.836,4.241
	v5.701c0,6.233,5.1,11.334,11.334,11.334h41.864c6.233,0,11.334-5.1,11.334-11.334v-5.701c0-1.499-0.301-2.929-0.836-4.241
	C226.55,460.751,222.475,463.696,217.74,463.696z"/>
<path style="fill:#FFC850;" d="M456.603,259.557h-28.435c-1.807-7.723-4.844-14.971-8.911-21.518l20.104-20.105
	c1.222-1.222,1.222-3.203,0-4.424l-18.903-18.904c-1.222-1.221-3.202-1.221-4.424,0l-20.105,20.104
	c-6.547-4.066-13.795-7.103-21.517-8.911v-28.435c0-1.727-1.401-3.128-3.128-3.128H344.55c-1.727,0-3.128,1.401-3.128,3.128v28.435
	c-7.724,1.807-14.971,4.844-21.518,8.911L299.8,194.604c-1.222-1.221-3.202-1.221-4.424,0l-18.903,18.904
	c-1.222,1.221-1.222,3.202,0,4.424l20.104,20.105c-4.066,6.547-7.103,13.795-8.911,21.518h-28.435c-1.727,0-3.128,1.401-3.128,3.128
	v26.734c0,1.728,1.4,3.128,3.128,3.128h28.435c1.807,7.723,4.844,14.97,8.911,21.517l-20.104,20.105
	c-1.222,1.222-1.222,3.202,0,4.424l18.903,18.903c1.222,1.222,3.202,1.222,4.424,0l20.104-20.105
	c6.547,4.066,13.795,7.104,21.518,8.912v28.435c0,1.728,1.401,3.128,3.128,3.128h26.734c1.728,0,3.128-1.401,3.128-3.128v-28.435
	c7.723-1.807,14.97-4.844,21.517-8.911l20.105,20.104c1.222,1.222,3.202,1.222,4.424,0l18.903-18.903
	c1.222-1.222,1.222-3.202,0-4.424l-20.104-20.105c4.066-6.547,7.103-13.794,8.911-21.517h28.435c1.728,0,3.128-1.401,3.128-3.128
	v-26.734C459.731,260.957,458.33,259.557,456.603,259.557z M357.917,308.735c-18.051,0-32.683-14.633-32.683-32.683
	c0-18.051,14.633-32.683,32.683-32.683s32.683,14.633,32.683,32.683S375.967,308.735,357.917,308.735z"/>
<g>
	<path style="fill:#F9B428;" d="M276.848,289.419v-26.734c0-1.727,1.4-3.128,3.128-3.128H259.23c-1.727,0-3.128,1.401-3.128,3.128
		v26.734c0,1.727,1.4,3.128,3.128,3.128h20.746C278.249,292.547,276.848,291.146,276.848,289.419z"/>
	<path style="fill:#F9B428;" d="M296.575,238.038c-4.066,6.547-7.103,13.795-8.911,21.518h16.788c1.867,0,3.494-1.249,3.998-3.046
		c1.662-5.927,4.058-11.546,7.091-16.75c0.595-1.02,0.45-2.307-0.385-3.142l-18.684-18.684c-1.222-1.222-1.222-3.202,0-4.424
		l11.114-11.114l-7.789-7.789c-1.222-1.222-3.202-1.222-4.424,0l-18.903,18.904c-1.222,1.222-1.222,3.202,0,4.424L296.575,238.038z"
		/>
	<path style="fill:#F9B428;" d="M296.474,338.594c-1.222-1.222-1.222-3.202,0-4.424l18.343-18.343
		c1.01-1.01,1.246-2.578,0.533-3.816c-3.077-5.346-5.484-11.124-7.118-17.219c-0.356-1.329-1.571-2.244-2.947-2.244h-17.62
		c1.807,7.723,4.844,14.97,8.911,21.517l-20.104,20.105c-1.222,1.222-1.222,3.202,0,4.424l18.903,18.903
		c1.222,1.222,3.202,1.222,4.424,0l7.789-7.789L296.474,338.594z"/>
	<path style="fill:#F9B428;" d="M361.425,177.366c0-1.727,1.401-3.128,3.128-3.128H344.55c-1.728,0-3.128,1.4-3.128,3.128V205.8
		h15.562c2.469-0.055,4.441-2.417,4.441-4.887V177.366z"/>
	<path style="fill:#F9B428;" d="M361.425,374.738v-25.353c0-1.702-1.38-3.082-3.082-3.082h-16.921v28.435
		c0,1.728,1.4,3.128,3.128,3.128h20.003C362.826,377.866,361.425,376.466,361.425,374.738z"/>
</g>
<path d="M181.295,38.074c-4.142,0-7.5,3.357-7.5,7.5s3.358,7.5,7.5,7.5h31.52c4.142,0,7.5-3.357,7.5-7.5s-3.358-7.5-7.5-7.5H181.295
	z"/>
<path d="M217.987,484.882c10.386,0,18.834-8.45,18.834-18.835v-5.701c0-10.386-8.449-18.834-18.834-18.834h-41.864
	c-10.386,0-18.834,8.449-18.834,18.834v5.701c0,10.386,8.45,18.835,18.834,18.835L217.987,484.882L217.987,484.882z M172.29,466.047
	v-5.701c0-2.078,1.755-3.833,3.833-3.833h41.864c2.078,0,3.833,1.755,3.833,3.833v5.701c0,2.078-1.755,3.834-3.833,3.834h-41.864
	C174.045,469.881,172.29,468.125,172.29,466.047z"/>
<path d="M456.85,251.556h-22.718c-1.387-4.401-3.152-8.666-5.281-12.756l16.062-16.062c2.008-2.008,3.114-4.678,3.114-7.518
	c0-2.839-1.106-5.509-3.113-7.515l-18.905-18.906c-4.143-4.139-10.884-4.137-15.029,0.002l-16.064,16.064
	c-4.09-2.129-8.353-3.894-12.756-5.28v-22.719c0-5.86-4.768-10.629-10.629-10.629h-21.942v-39.665c0-4.143-3.358-7.5-7.5-7.5
	c-4.142,0-7.919,3.357-7.919,7.5v47.369v25.644c-4.403,1.387-8.667,3.151-12.756,5.281l-4.211-4.212V88.847l0,0l0,0
	c0-7.521-6.119-13.644-13.645-13.644c-7.31,0-201.426,0-213.003,0c-7.523,0-13.644,6.12-13.644,13.644l0,0v326.848
	c0,7.522,6.12,13.644,13.644,13.644h213.003c7.523,0,13.644-6.12,13.644-13.644v-65.247l4.211-4.211
	c4.09,2.131,8.354,3.896,12.756,5.282c0,24.106-0.143,23.687,0.419,25.644v0.001v103.202c0,9.172-7.461,16.633-16.633,16.633
	H214.556c-4.142,0-7.5,3.357-7.5,7.5s3.358,7.5,7.5,7.5h103.398c17.443,0,31.634-14.191,31.634-31.634v-95.499h21.942
	c5.86,0,10.629-4.769,10.629-10.63v-22.718c4.402-1.387,8.666-3.151,12.756-5.281l16.064,16.064c4.144,4.143,10.888,4.143,15.031,0
	l18.902-18.902c2.008-2.008,3.114-4.677,3.114-7.517c0-2.84-1.106-5.509-3.113-7.516l-16.063-16.063
	c2.129-4.09,3.895-8.354,5.281-12.756h22.718c5.86,0,10.629-4.768,10.629-10.629v-26.734
	C467.479,256.325,462.711,251.556,456.85,251.556z M302.2,122.767H135.79V90.206H302.2V122.767z M91.91,90.206h28.878v32.561H91.91
	V90.206z M302.2,414.338H91.91v-276.57c11.084,0,202.407,0,210.289,0v48.859c-3.923-1.764-8.71-0.996-11.882,2.174l-18.903,18.903
	c-4.19,4.191-4.113,10.922,0,15.033l16.063,16.063c-0.774,1.486-1.482,3.002-2.159,4.533c-1.186,2.681-2.239,5.42-3.122,8.222
	h-22.718l0,0c-5.86,0-10.629,4.767-10.629,10.629v5.866H122.3c-4.142,0-7.5,3.357-7.5,7.5s3.358,7.5,7.5,7.5h126.549v5.866
	c0,5.859,4.766,10.629,10.629,10.629l0,0h22.718c1.286,4.082,2.992,8.359,5.281,12.755l-16.063,16.064
	c-4.144,4.145-4.144,10.888,0,15.032l18.903,18.903c3.103,3.101,7.86,3.978,11.882,2.175L302.2,414.338L302.2,414.338z
	 M452.478,284.546h-24.062c-3.484,0-6.509,2.399-7.303,5.791c-1.6,6.836-4.284,13.32-7.979,19.271
	c-1.838,2.96-1.396,6.796,1.068,9.261l17.013,17.013l-12.72,12.721l-17.014-17.014c-2.465-2.462-6.299-2.906-9.261-1.067
	c-5.952,3.695-12.436,6.38-19.269,7.979c-3.393,0.793-5.792,3.818-5.792,7.303v24.063h-17.989v-24.063
	c0-3.484-2.399-6.51-5.792-7.303c-6.834-1.599-13.318-4.283-19.269-7.979c-2.959-1.838-6.796-1.396-9.261,1.068l-17.013,17.014
	l-12.721-12.721l17.013-17.013c2.465-2.465,2.906-6.303,1.068-9.263c-3.697-5.953-6.386-12.462-7.978-19.268
	c-0.793-3.393-3.819-5.792-7.303-5.792l0,0h-24.062v-17.989h24.062l0,0c3.484,0,6.509-2.399,7.303-5.792
	c1.535-6.559,4.222-13.221,7.978-19.269c0.689-1.11,1.058-2.343,1.12-3.581c0.103-2.063-0.648-4.14-2.188-5.679l-11.342-11.343
	l-5.67-5.671l12.72-12.721l17.013,17.014c2.463,2.464,6.3,2.907,9.261,1.068c5.95-3.695,12.433-6.379,19.269-7.979
	c3.393-0.793,5.792-3.818,5.792-7.303v-24.063h17.989V205.3c0,3.484,2.399,6.509,5.792,7.303c6.835,1.599,13.319,4.283,19.27,7.979
	c2.959,1.837,6.796,1.395,9.26-1.068l17.014-17.014l12.721,12.721l-17.013,17.014c-2.464,2.464-2.906,6.3-1.068,9.261
	c3.695,5.951,6.38,12.435,7.979,19.271c0.793,3.392,3.819,5.791,7.303,5.791h24.062L452.478,284.546L452.478,284.546z"/>
<path d="M358.164,235.368c-22.157,0-40.184,18.026-40.184,40.184s18.026,40.184,40.184,40.184c22.157,0,40.183-18.026,40.183-40.184
	S380.321,235.368,358.164,235.368z M358.164,300.735c-13.886,0-25.184-11.298-25.184-25.184c0-13.886,11.297-25.184,25.184-25.184
	c13.886,0,25.183,11.298,25.183,25.184C383.347,289.438,372.049,300.735,358.164,300.735z"/>
<path d="M122.3,201.546h134.049c4.142,0,7.5-3.357,7.5-7.5c0-4.143-3.358-7.5-7.5-7.5H122.3c-4.142,0-7.5,3.357-7.5,7.5
	C114.799,198.189,118.158,201.546,122.3,201.546z"/>
<path d="M122.3,242.3h134.049c4.142,0,7.5-3.357,7.5-7.5c0-4.143-3.358-7.5-7.5-7.5H122.3c-4.142,0-7.5,3.357-7.5,7.5
	C114.799,238.942,118.158,242.3,122.3,242.3z"/>
<path d="M256.349,308.804H122.3c-4.142,0-7.5,3.357-7.5,7.5c0,4.143,3.358,7.5,7.5,7.5h134.049c4.142,0,7.5-3.357,7.5-7.5
	C263.849,312.161,260.491,308.804,256.349,308.804z"/>
<path d="M256.349,349.556H122.3c-4.142,0-7.5,3.357-7.5,7.5c0,4.143,3.358,7.5,7.5,7.5h134.049c4.142,0,7.5-3.357,7.5-7.5
	C263.849,352.913,260.491,349.556,256.349,349.556z"/>
<path d="M179.553,496.999H76.156c-9.172,0-16.633-7.461-16.633-16.633V31.634c0-9.172,7.461-16.633,16.633-16.633h241.799
	c9.172,0,16.633,7.461,16.633,16.633V91.57c0,4.143,3.358,7.5,7.5,7.5c4.142,0,7.5-3.357,7.5-7.5V31.634
	C349.588,14.191,335.397,0,317.955,0H76.156C58.713,0,44.522,14.191,44.522,31.634v448.732c0,17.442,14.191,31.634,31.634,31.634
	h103.398c4.142,0,7.5-3.357,7.5-7.5S183.697,496.999,179.553,496.999z"/>
<g>
</g>
<g>
</g>
<g>
</g>
<g>
</g>
<g>
</g>
<g>
</g>
<g>
</g>
<g>
</g>
<g>
</g>
<g>
</g>
<g>
</g>
<g>
</g>
<g>
</g>
<g>
</g>
<g>
</g>
</svg>
