<svg id="Capa_1" enable-background="new 0 0 512 512" viewBox="0 0 512 512" xmlns="http://www.w3.org/2000/svg"><g><g><path clip-rule="evenodd" d="m55.292 288.601v81.559l197.607 21.519 130.319-21.519v-49.914c0-7.71 6.3-14.01 14.01-14.01h25.517v-138.579c0-7.624-6.243-13.867-13.866-13.867h-80.378z" fill="#9fd4fe" fill-rule="evenodd"/></g><g><path clip-rule="evenodd" d="m292.887 408.653-59.032-11.594-48.704 11.594-13.55 45.311 66.943 9.177 67.863-9.177z" fill="#beb9dd" fill-rule="evenodd"/></g><g><path clip-rule="evenodd" d="m383.218 370.16h-327.926v24.626c0 7.624 6.243 13.867 13.866 13.867h115.992 107.736 90.331v-38.493z" fill="#dddaec" fill-rule="evenodd"/></g><g><path clip-rule="evenodd" d="m306.407 453.964h-134.806-20.886c-9.321 0-16.944 7.624-16.944 16.974v11.882c0 2.791 2.273 5.063 5.063 5.063h200.369c2.762 0 5.063-2.273 5.063-5.063v-11.882c0-9.35-7.652-16.974-16.973-16.974z" fill="#dddaec" fill-rule="evenodd"/></g><g><path clip-rule="evenodd" d="m299.417 288.601c-5.639 29.804-16.484 57.451-31.386 81.559h115.187v-49.914c0-7.71 6.3-14.01 14.01-14.01h25.517v-138.579c0-7.624-6.243-13.867-13.866-13.867h-80.378v121.404c0 7.365-6.013 13.406-13.377 13.406h-15.707z" fill="#85beef" fill-rule="evenodd"/></g><g><path clip-rule="evenodd" d="m383.218 370.16h-115.187c-8.717 14.125-18.843 27.014-30.12 38.493h54.976 90.331z" fill="#beb9dd" fill-rule="evenodd"/></g><g><path clip-rule="evenodd" d="m179.339 428.043h76.897c12.111 0 14.384 4.373 17.548 14.988l3.28 10.932h29.343l-13.521-45.311h-54.976-52.76z" fill="#a7a2d3" fill-rule="evenodd"/></g><g><path clip-rule="evenodd" d="m55.292 288.601h259.832c7.365 0 13.377-6.041 13.377-13.406v-121.404-66.283l-162.193-19.074-166.308 19.074v187.687c0 7.365 6.013 13.406 13.377 13.406z" fill="#eff6ff" fill-rule="evenodd"/></g><g><path clip-rule="evenodd" d="m44.36 249.389h77.587c2.848 0 5.178-2.33 5.178-5.178v-112.342c0-2.848-2.33-5.15-5.178-5.15h-77.587c-2.848 0-5.178 2.301-5.178 5.15v112.342c0 2.848 2.33 5.178 5.178 5.178z" fill="#ffd772" fill-rule="evenodd"/></g><g><path clip-rule="evenodd" d="m166.308 131.869v33.976c0 2.848 2.33 5.178 5.149 5.178h112.713c2.819 0 5.149-2.33 5.149-5.178v-33.976c0-2.848-2.33-5.15-5.149-5.15h-112.713c-2.819 0-5.149 2.302-5.149 5.15z" fill="#3bc3a4" fill-rule="evenodd"/></g><g><path clip-rule="evenodd" d="m0 87.508h328.501v-57.624c0-7.365-6.013-13.377-13.377-13.377h-301.747c-7.364-.001-13.377 6.012-13.377 13.377z" fill="#375e7d" fill-rule="evenodd"/></g><g><path clip-rule="evenodd" d="m284.17 126.719h-30.293c2.1 13.147 3.193 26.726 3.193 40.564v3.74h27.099c2.819 0 5.149-2.33 5.149-5.178v-33.976c.001-2.848-2.329-5.15-5.148-5.15z" fill="#00a887" fill-rule="evenodd"/></g><g><path clip-rule="evenodd" d="m284.17 171.023h-27.1c-.23 14.471-1.64 28.625-4.143 42.319-2.273 12.428-5.466 24.453-9.465 36.047-4.775 13.78-10.702 26.899-17.664 39.212h89.324c7.365 0 13.377-6.041 13.377-13.406v-121.404-66.283h-84.259c4.2 12.572 7.451 25.662 9.637 39.212h30.293c2.819 0 5.149 2.301 5.149 5.15v33.976c0 2.847-2.33 5.177-5.149 5.177z" fill="#d9eeff" fill-rule="evenodd"/></g><g><path clip-rule="evenodd" d="m244.24 87.508h84.261v-57.624c0-7.365-6.013-13.377-13.377-13.377h-109.232c16.427 20.54 29.516 44.591 38.348 71.001z" fill="#2b4d66" fill-rule="evenodd"/></g><g><path clip-rule="evenodd" d="m297.921 453.964c9.35 0 16.973 7.624 16.973 16.974v11.882c0 2.762-2.244 5.035-5.006 5.063h29.315c2.762 0 5.063-2.273 5.063-5.063v-11.882c0-9.35-7.652-16.974-16.973-16.974h-20.886z" fill="#beb9dd" fill-rule="evenodd"/></g><g><path d="m288.255 59.647c-4.204 0-7.611-3.407-7.611-7.611s3.408-7.64 7.611-7.64 7.612 3.379 7.612 7.583v.057c-.001 4.204-3.409 7.611-7.612 7.611z" fill="#3bc3a4"/></g><g><path d="m250.626 59.647c-4.204 0-7.611-3.407-7.611-7.611s3.408-7.64 7.611-7.64c4.204 0 7.611 3.379 7.611 7.583v.057c.001 4.204-3.407 7.611-7.611 7.611z" fill="#ffd772"/></g><g><path d="m212.998 59.647c-4.204 0-7.611-3.407-7.611-7.611s3.408-7.64 7.611-7.64c4.204 0 7.611 3.379 7.611 7.583v.057c.001 4.204-3.407 7.611-7.611 7.611z" fill="#e5384f"/></g><g><path d="m118.15 59.647c-.002 0-.003 0-.005 0l-77.904-.057c-4.204-.003-7.609-3.413-7.606-7.617.003-4.201 3.41-7.606 7.611-7.606h.005l77.904.057c4.204.003 7.609 3.413 7.606 7.617-.002 4.202-3.41 7.606-7.611 7.606z" fill="#eff6ff"/></g><g><path d="m289.319 220.953h-123.011c-4.204 0-7.611-3.407-7.611-7.611s3.408-7.611 7.611-7.611h123.011c4.204 0 7.612 3.407 7.612 7.611s-3.408 7.611-7.612 7.611z" fill="#2b4d66"/></g><g><path d="m289.319 257.001h-62.973c-4.204 0-7.612-3.407-7.612-7.612s3.408-7.611 7.612-7.611h62.973c4.204 0 7.612 3.407 7.612 7.611s-3.408 7.612-7.612 7.612zm-104.226 0h-18.785c-4.204 0-7.611-3.407-7.611-7.612s3.408-7.611 7.611-7.611h18.785c4.204 0 7.611 3.407 7.611 7.611s-3.407 7.612-7.611 7.612z" fill="#2b4d66"/></g><g><path clip-rule="evenodd" d="m383.218 408.653v65.19c0 7.739 6.3 14.039 14.01 14.039h93.122c7.71 0 14.039-6.3 14.039-14.039v-153.596c0-7.71-6.329-14.01-14.039-14.01h-67.605-25.517c-7.71 0-14.01 6.3-14.01 14.01v49.914z" fill="#9fd4fe" fill-rule="evenodd"/></g><g><path d="m443.803 465.056h-.259c-4.204 0-7.611-3.407-7.611-7.611s3.408-7.612 7.611-7.612h.259c4.204 0 7.611 3.407 7.611 7.612s-3.407 7.611-7.611 7.611z" fill="#2b4d66"/></g><g><path clip-rule="evenodd" d="m490.35 306.236h-46.431c15.189 23.936 24.366 55.178 24.366 89.327 0 35.587-9.982 68.009-26.351 92.319h48.416c7.71 0 14.039-6.3 14.039-14.039v-153.596c-.001-7.71-6.329-14.011-14.039-14.011z" fill="#85beef" fill-rule="evenodd"/></g><g><path d="m490.35 495.494h-93.122c-11.922 0-21.621-9.713-21.621-21.65v-153.597c0-11.923 9.699-21.622 21.621-21.622h93.122c11.938 0 21.65 9.7 21.65 21.622v153.597c0 11.937-9.712 21.65-21.65 21.65zm-93.122-181.647c-3.528 0-6.398 2.871-6.398 6.399v153.597c0 3.544 2.87 6.427 6.398 6.427h93.122c3.544 0 6.427-2.883 6.427-6.427v-153.596c0-3.528-2.883-6.399-6.427-6.399h-93.122z" fill="#dddaec"/></g><g><path clip-rule="evenodd" d="m99.077 131.869v112.342c0 2.848-2.33 5.178-5.149 5.178h28.02c2.848 0 5.178-2.33 5.178-5.178v-112.342c0-2.848-2.33-5.15-5.178-5.15h-28.02c2.819 0 5.149 2.302 5.149 5.15z" fill="#fbba58" fill-rule="evenodd"/></g></g></svg>